<svg width="100" height="100" viewBox="0 0 100 100" fill="none" xmlns="http://www.w3.org/2000/svg">
<path d="M50 67.9295C59.9281 67.9295 67.9766 59.8811 67.9766 49.953C67.9766 40.0249 59.9281 31.9766 50 31.9766C40.0719 31.9766 32.0234 40.0249 32.0234 49.953C32.0234 59.8811 40.0719 67.9295 50 67.9295Z" fill="#999999"/>
<path d="M67.9766 49.9529C77.9047 49.9529 85.9529 41.9046 85.9529 31.9764C85.9529 22.0483 77.9047 14 67.9766 14C58.0484 14 50 22.0483 50 31.9764C50 41.9046 58.0484 49.9529 67.9766 49.9529Z" fill="#999999"/>
<path d="M32.0232 49.9529C41.9513 49.9529 49.9998 41.9046 49.9998 31.9764C49.9998 22.0483 41.9513 14 32.0232 14C22.0951 14 14.0469 22.0483 14.0469 31.9764C14.0469 41.9046 22.0951 49.9529 32.0232 49.9529Z" fill="#999999"/>
<path d="M86 49.9526H50V85.9526H86V49.9526Z" fill="#999999"/>
<path d="M50 49.9526H14V85.9526H50V49.9526Z" fill="#999999"/>
</svg>
