<svg width="100" height="100" viewBox="0 0 100 100" fill="none" xmlns="http://www.w3.org/2000/svg">
<path d="M10.1602 50V30C21.1824 30 30.1602 21.0667 30.1602 10H50.1602C50.1602 32.0889 32.249 50 10.1602 50Z" fill="#999999"/>
<path d="M50.1602 10H70.1602C70.1602 21.0222 79.0935 30 90.1602 30V50C68.0713 50 50.1602 32.0889 50.1602 10Z" fill="#999999"/>
<path d="M10.1602 50V70C21.1824 70 30.1602 78.9333 30.1602 90H50.1602C50.1602 67.9111 32.249 50 10.1602 50Z" fill="#999999"/>
<path d="M50.1602 90H70.1602C70.1602 78.9778 79.0935 70 90.1602 70V50C68.0713 50 50.1602 67.9111 50.1602 90Z" fill="#999999"/>
</svg>
