<svg width="100" height="100" viewBox="0 0 100 100" fill="none" xmlns="http://www.w3.org/2000/svg">
<path d="M56.2838 65.0669H43.7949V90.0002H56.2838V65.0669Z" fill="#999999"/>
<path d="M56.2838 10H43.7949V34.9333H56.2838V10Z" fill="#999999"/>
<path d="M65.0557 43.7514V56.2402H89.989V43.7514H65.0557Z" fill="#999999"/>
<path d="M10 43.7626V56.2515H34.9333V43.7626H10Z" fill="#999999"/>
<path d="M65.079 56.2028L56.248 65.0337L73.8784 82.664L82.7093 73.8331L65.079 56.2028Z" fill="#999999"/>
<path d="M26.1449 17.2731L17.314 26.104L34.9443 43.7344L43.7752 34.9035L26.1449 17.2731Z" fill="#999999"/>
<path d="M56.2174 34.9416L65.0483 43.7725L82.6787 26.1421L73.8478 17.3112L56.2174 34.9416Z" fill="#999999"/>
<path d="M17.2917 73.8718L26.1226 82.7026L43.7529 65.0723L34.922 56.2414L17.2917 73.8718Z" fill="#999999"/>
</svg>
