<svg width="40" height="40" viewBox="0 0 40 40" fill="none" xmlns="http://www.w3.org/2000/svg">
<rect width="40" height="40" rx="12" fill="#141414"/>
<path d="M10.8055 28.9058C10.2191 28.8877 9.71119 28.7516 9.28192 28.4975C8.85264 28.2434 8.49592 27.9077 8.21176 27.4903C7.93968 27.0911 7.73411 26.6434 7.59505 26.1474C7.45599 25.6574 7.38646 25.1704 7.38646 24.6865V23.153C7.38646 22.2819 7.17787 21.6497 6.76069 21.2565C6.34955 20.8633 5.71774 20.6637 4.86523 20.6577V19.3419C5.71774 19.3419 6.34955 19.1484 6.76069 18.7612C7.17787 18.368 7.38646 17.7328 7.38646 16.8557V15.3131C7.38646 14.8231 7.44995 14.3241 7.57691 13.8159C7.70993 13.3017 7.91852 12.842 8.20269 12.4367C8.46872 12.0495 8.81637 11.735 9.24564 11.493C9.67491 11.245 10.1949 11.1119 10.8055 11.0938L10.996 12.1373C10.5607 12.1493 10.213 12.2522 9.95303 12.4458C9.6991 12.6393 9.50865 12.8843 9.38168 13.1808C9.24866 13.4832 9.16402 13.822 9.12774 14.197C9.09146 14.5721 9.07333 14.9441 9.07333 15.3131V16.8557C9.07333 17.5816 8.90404 18.2198 8.56545 18.7703C8.23292 19.3147 7.71597 19.7291 7.01463 20.0134C7.71597 20.2917 8.23292 20.706 8.56545 21.2565C8.89799 21.801 9.06728 22.4331 9.07333 23.153V24.6865C9.07333 25.0615 9.10356 25.4336 9.16402 25.8026C9.22448 26.1776 9.33029 26.5134 9.48144 26.8098C9.62655 27.1122 9.82002 27.3603 10.0619 27.5538C10.3098 27.7474 10.6211 27.8502 10.996 27.8623L10.8055 28.9058Z" fill="#99B3FF"/>
<path d="M23.7831 13.645V12.1118H25.1483V13.645H23.7831ZM23.7831 25.5848V15.5498H25.1483V25.5848H23.7831Z" fill="white"/>
<path d="M29.0044 27.8623C29.3733 27.8502 29.6816 27.7474 29.9295 27.5538C30.1774 27.3603 30.3769 27.1122 30.5281 26.8098C30.6732 26.5134 30.776 26.1776 30.8364 25.8026C30.9029 25.4336 30.9362 25.0615 30.9362 24.6865V23.153C30.9362 22.6751 31.0057 22.2335 31.1448 21.8282C31.2899 21.4229 31.5106 21.072 31.8068 20.7756C31.964 20.6183 32.1394 20.4762 32.3328 20.3491C32.5324 20.2221 32.75 20.1102 32.9858 20.0134C32.744 19.9166 32.5203 19.8017 32.3147 19.6686C32.1152 19.5355 31.9398 19.3873 31.7887 19.224C31.4985 18.9215 31.2838 18.5707 31.1448 18.1714C31.0057 17.7661 30.9362 17.3275 30.9362 16.8557V15.3131C30.9362 14.9441 30.915 14.5721 30.8727 14.197C30.8364 13.822 30.7548 13.4832 30.6278 13.1808C30.4948 12.8843 30.3013 12.6393 30.0474 12.4458C29.7935 12.2522 29.4488 12.1493 29.0135 12.1373L29.1949 11.0938C29.7814 11.1119 30.2832 11.2359 30.7004 11.4658C31.1236 11.6957 31.4713 11.9951 31.7433 12.3641C32.0517 12.7815 32.2724 13.2503 32.4054 13.7706C32.5444 14.2908 32.614 14.805 32.614 15.3131V16.8557C32.614 17.2186 32.6472 17.5393 32.7137 17.8175C32.7863 18.0897 32.8921 18.3257 33.0312 18.5253C33.2307 18.8096 33.5058 19.0183 33.8564 19.1514C34.2132 19.2784 34.6394 19.3419 35.1352 19.3419V20.6577C34.6999 20.6637 34.319 20.7181 33.9925 20.821C33.672 20.9178 33.409 21.072 33.2035 21.2838C33.0039 21.4894 32.8558 21.7465 32.7591 22.055C32.6623 22.3636 32.614 22.7295 32.614 23.153V24.6865C32.614 25.1704 32.5475 25.6574 32.4144 26.1474C32.2814 26.6434 32.0759 27.0941 31.7977 27.4994C31.5136 27.9047 31.1569 28.2374 30.7276 28.4975C30.2983 28.7576 29.7874 28.8937 29.1949 28.9058L29.0044 27.8623Z" fill="#99B3FF"/>
<path fill-rule="evenodd" clip-rule="evenodd" d="M16.7035 25.8635C15.9482 25.8635 15.3136 25.7273 14.7997 25.4547C14.2921 25.1822 13.9113 24.8198 13.6575 24.3676C13.4036 23.9154 13.2767 23.4229 13.2767 22.8902C13.2767 22.3451 13.385 21.8805 13.6017 21.4964C13.8246 21.1062 14.1249 20.7872 14.5026 20.5394C14.8864 20.2916 15.3291 20.1027 15.8306 19.9726C16.3383 19.8487 16.8986 19.7403 17.5115 19.6474C18.1306 19.5483 18.7343 19.4647 19.3224 19.3965C19.7139 19.3476 20.0732 19.2999 20.4002 19.2537C20.3872 18.3765 20.1951 17.7179 19.8239 17.278C19.4215 16.801 18.7219 16.5626 17.7251 16.5626C17.0379 16.5626 16.4559 16.7174 15.9792 17.0271C15.5086 17.3369 15.1774 17.8262 14.9855 18.4952L13.6575 18.105C13.8865 17.2068 14.3478 16.5099 15.0412 16.0144C15.7346 15.5188 16.6354 15.271 17.7437 15.271C18.66 15.271 19.437 15.4445 20.0747 15.7914C20.7185 16.132 21.1736 16.6276 21.4398 17.278C21.5636 17.5692 21.6441 17.8944 21.6813 18.2536C21.7184 18.6129 21.737 18.9784 21.737 19.3501V25.5848H20.5204V23.9277C20.2021 24.448 19.7904 24.8672 19.2853 25.1852C18.5671 25.6374 17.7065 25.8635 16.7035 25.8635ZM18.533 24.3397C18.0563 24.5689 17.4991 24.6835 16.8614 24.6835C16.3228 24.6835 15.8894 24.5937 15.5613 24.414C15.2393 24.2344 15.0041 24.0083 14.8555 23.7357C14.7131 23.4632 14.6419 23.1813 14.6419 22.8902C14.6419 22.5309 14.7254 22.2305 14.8926 21.9889C15.066 21.7473 15.2858 21.5553 15.552 21.4128C15.8182 21.2642 16.0937 21.1496 16.3785 21.069C16.7995 20.9575 17.27 20.8615 17.7901 20.781C18.3164 20.7005 18.8488 20.6292 19.3874 20.5673C19.7343 20.5278 20.0648 20.4884 20.3791 20.449C20.3775 20.6 20.3751 20.7788 20.3718 20.9854C20.3656 21.3695 20.3254 21.7225 20.2511 22.0447C20.1644 22.5464 19.9756 22.9986 19.6846 23.4012C19.3936 23.7977 19.0098 24.1105 18.533 24.3397Z" fill="white"/>
</svg>
