<svg width="24" height="24" viewBox="0 0 24 24" fill="none" xmlns="http://www.w3.org/2000/svg">
<path d="M11.4956 2.71393C11.7021 2.29539 12.299 2.29539 12.5055 2.71393L15.1795 8.13206C15.2616 8.29826 15.4201 8.41346 15.6036 8.44012L21.5828 9.30895C22.0447 9.37607 22.2291 9.94369 21.8949 10.2695L17.5683 14.4869C17.4355 14.6163 17.375 14.8027 17.4063 14.9854L18.4277 20.9404C18.5066 21.4005 18.0237 21.7513 17.6106 21.5341L12.2626 18.7225C12.0986 18.6362 11.9026 18.6362 11.7385 18.7225L6.3905 21.5341C5.97737 21.7513 5.49453 21.4005 5.57343 20.9404L6.59481 14.9854C6.62614 14.8027 6.56557 14.6163 6.43285 14.4869L2.10622 10.2695C1.77199 9.94369 1.95642 9.37607 2.41832 9.30895L8.39757 8.44012C8.58099 8.41346 8.73955 8.29826 8.82158 8.13206L11.4956 2.71393Z" stroke="#141414" stroke-linejoin="round"/>
</svg>
