<svg width="24" height="24" viewBox="0 0 24 24" fill="none" xmlns="http://www.w3.org/2000/svg">
<path d="M10.8909 3.17203C11.2718 2.14253 12.728 2.14253 13.1089 3.17203L15.005 8.29616C15.1248 8.61984 15.38 8.87503 15.7036 8.9948L20.8278 10.8909C21.8573 11.2718 21.8573 12.728 20.8278 13.1089L15.7036 15.005C15.38 15.1248 15.1248 15.38 15.005 15.7036L13.1089 20.8278C12.728 21.8573 11.2719 21.8573 10.8909 20.8278L8.9948 15.7036C8.87503 15.38 8.61984 15.1248 8.29617 15.005L3.17203 13.1089C2.14253 12.728 2.14253 11.2719 3.17203 10.8909L8.29616 8.9948C8.61984 8.87503 8.87503 8.61984 8.9948 8.29617L10.8909 3.17203Z" stroke="#141414" stroke-linejoin="round"/>
</svg>
