<svg width="24" height="24" viewBox="0 0 24 24" fill="none" xmlns="http://www.w3.org/2000/svg">
<path d="M12 12V11.5C11.7239 11.5 11.5 11.7239 11.5 12H12ZM12.0797 12H12.5797C12.5797 11.7239 12.3558 11.5 12.0797 11.5V12ZM12.0797 12.0721V12.5721C12.3558 12.5721 12.5797 12.3482 12.5797 12.0721H12.0797ZM12 12.0721H11.5C11.5 12.3482 11.7239 12.5721 12 12.5721V12.0721ZM20.5 12C20.5 16.6944 16.6944 20.5 12 20.5V21.5C17.2467 21.5 21.5 17.2467 21.5 12H20.5ZM12 20.5C7.30558 20.5 3.5 16.6944 3.5 12H2.5C2.5 17.2467 6.75329 21.5 12 21.5V20.5ZM3.5 12C3.5 7.30558 7.30558 3.5 12 3.5V2.5C6.75329 2.5 2.5 6.75329 2.5 12H3.5ZM12 3.5C16.6944 3.5 20.5 7.30558 20.5 12H21.5C21.5 6.75329 17.2467 2.5 12 2.5V3.5ZM16 12C16 14.2091 14.2091 16 12 16V17C14.7614 17 17 14.7614 17 12H16ZM12 16C9.79086 16 8 14.2091 8 12H7C7 14.7614 9.23858 17 12 17V16ZM8 12C8 9.79086 9.79086 8 12 8V7C9.23858 7 7 9.23858 7 12H8ZM12 8C14.2091 8 16 9.79086 16 12H17C17 9.23858 14.7614 7 12 7V8ZM12 12.5H12.0797V11.5H12V12.5ZM11.5797 12V12.0721H12.5797V12H11.5797ZM12.0797 11.5721H12V12.5721H12.0797V11.5721ZM12.5 12.0721V12H11.5V12.0721H12.5Z" fill="#141414"/>
</svg>
